<svg width="28" height="14" viewBox="0 0 28 14" fill="none" xmlns="http://www.w3.org/2000/svg">
<g id="Battery">
<path id="Outline" d="M0.677201 4.5C0.677201 2.58221 2.23187 1.02754 4.14966 1.02754H21.1497C23.0674 1.02754 24.6221 2.58222 24.6221 4.5V9.5C24.6221 11.4178 23.0674 12.9725 21.1497 12.9725H4.14966C2.23187 12.9725 0.677201 11.4178 0.677201 9.5V4.5Z" stroke="black" stroke-width="1.05509"/>
<path id="Battery End" d="M25.8502 5V10C27.0621 9.57653 27.8502 8.59142 27.8502 7.5C27.8502 6.40858 27.0621 5.42347 25.8502 5Z" fill="black"/>
<path id="Fill" d="M2.14966 4.5C2.14966 3.39543 3.04509 2.5 4.14966 2.5H21.1497C22.2542 2.5 23.1497 3.39543 23.1497 4.5V9.5C23.1497 10.6046 22.2542 11.5 21.1497 11.5H4.14966C3.04509 11.5 2.14966 10.6046 2.14966 9.5V4.5Z" fill="#949494"/>
</g>
</svg>
