<svg width="18" height="12" viewBox="0 0 18 12" fill="none" xmlns="http://www.w3.org/2000/svg">
<path id="Wifi" fill-rule="evenodd" clip-rule="evenodd" d="M8.65012 2.58753C11.1167 2.58764 13.4889 3.55505 15.2765 5.28982C15.4111 5.42375 15.6263 5.42206 15.7589 5.28603L17.0457 3.96045C17.1128 3.89146 17.1502 3.798 17.1497 3.70076C17.1491 3.60353 17.1106 3.51052 17.0427 3.44234C12.3508 -1.14745 4.94873 -1.14745 0.256821 3.44234C0.188856 3.51047 0.150293 3.60345 0.149666 3.70068C0.149039 3.79792 0.1864 3.89141 0.253482 3.96045L1.54062 5.28603C1.67311 5.42226 1.88844 5.42395 2.02297 5.28982C3.81081 3.55494 6.18333 2.58752 8.65012 2.58753ZM8.68557 6.67235C10.0408 6.67227 11.3476 7.18644 12.3522 8.11496C12.4881 8.24674 12.7021 8.24389 12.8345 8.10853L14.1198 6.78294C14.1875 6.71341 14.2251 6.61909 14.2241 6.52107C14.2231 6.42306 14.1837 6.32953 14.1146 6.26142C11.0556 3.35683 6.31818 3.35683 3.25911 6.26142C3.19001 6.32953 3.15058 6.42311 3.14967 6.52115C3.14877 6.6192 3.18645 6.71351 3.25428 6.78294L4.53919 8.10853C4.67164 8.24389 4.88568 8.24674 5.02155 8.11496C6.02544 7.18706 7.33125 6.67293 8.68557 6.67235ZM11.2992 9.34267C11.3012 9.44096 11.2633 9.53573 11.1946 9.60459L8.97131 11.8948C8.90614 11.9621 8.81728 12 8.72457 12C8.63185 12 8.543 11.9621 8.47783 11.8948L6.25418 9.60459C6.18549 9.53567 6.1477 9.44088 6.14974 9.34259C6.15177 9.2443 6.19346 9.15122 6.26494 9.08534C7.68481 7.8595 9.76433 7.8595 11.1842 9.08534C11.2556 9.15128 11.2972 9.24438 11.2992 9.34267Z" fill="black"/>
</svg>
